<svg viewBox="0 0 2080 416"  version="1.1" xmlns="http://www.w3.org/2000/svg">
<g id="qubit_lines">
<path id="qubit_line:0" d="M64,64 L2048,64 " stroke="black"/>
<text dominant-baseline="central" text-anchor="end" font-family="monospace" font-size="12" x="64" y="64">q0</text>
<path id="qubit_line:1" d="M64,128 L2048,128 " stroke="black"/>
<text dominant-baseline="central" text-anchor="end" font-family="monospace" font-size="12" x="64" y="128">q1</text>
<path id="qubit_line:2" d="M64,192 L2048,192 " stroke="black"/>
<text dominant-baseline="central" text-anchor="end" font-family="monospace" font-size="12" x="64" y="192">q2</text>
<path id="qubit_line:3" d="M64,256 L2048,256 " stroke="black"/>
<text dominant-baseline="central" text-anchor="end" font-family="monospace" font-size="12" x="64" y="256">q3</text>
<path id="qubit_line:4" d="M64,320 L2048,320 " stroke="black"/>
<text dominant-baseline="central" text-anchor="end" font-family="monospace" font-size="12" x="64" y="320">q4</text>
</g>
<rect x="80" y="48" width="32" height="32" stroke="black" fill="black"/>
<text dominant-baseline="central" text-anchor="middle" font-family="monospace" font-size="30" x="96" y="64" fill="white">R</text>
<rect x="80" y="112" width="32" height="32" stroke="black" fill="black"/>
<text dominant-baseline="central" text-anchor="middle" font-family="monospace" font-size="30" x="96" y="128" fill="white">R</text>
<rect x="80" y="176" width="32" height="32" stroke="black" fill="black"/>
<text dominant-baseline="central" text-anchor="middle" font-family="monospace" font-size="30" x="96" y="192" fill="white">R</text>
<rect x="80" y="240" width="32" height="32" stroke="black" fill="black"/>
<text dominant-baseline="central" text-anchor="middle" font-family="monospace" font-size="30" x="96" y="256" fill="white">R</text>
<rect x="80" y="304" width="32" height="32" stroke="black" fill="black"/>
<text dominant-baseline="central" text-anchor="middle" font-family="monospace" font-size="30" x="96" y="320" fill="white">R</text>
<path d="M160,64 L160,128 " stroke="black"/>
<circle cx="160" cy="64" r="12" stroke="none" fill="black"/>
<circle cx="160" cy="128" r="12" stroke="black" fill="white"/>
<path d="M148,128 L172,128 M160,116 L160,140 " stroke="black"/>
<path d="M224,128 L224,192 " stroke="black"/>
<circle cx="224" cy="192" r="12" stroke="none" fill="black"/>
<circle cx="224" cy="128" r="12" stroke="black" fill="white"/>
<path d="M212,128 L236,128 M224,116 L224,140 " stroke="black"/>
<path d="M288,192 L288,256 " stroke="black"/>
<circle cx="288" cy="192" r="12" stroke="none" fill="black"/>
<circle cx="288" cy="256" r="12" stroke="black" fill="white"/>
<path d="M276,256 L300,256 M288,244 L288,268 " stroke="black"/>
<path d="M352,256 L352,320 " stroke="black"/>
<circle cx="352" cy="320" r="12" stroke="none" fill="black"/>
<circle cx="352" cy="256" r="12" stroke="black" fill="white"/>
<path d="M340,256 L364,256 M352,244 L352,268 " stroke="black"/>
<rect x="336" y="112" width="32" height="32" stroke="black" fill="black"/>
<text dominant-baseline="central" text-anchor="middle" font-family="monospace" font-size="30" x="352" y="128" fill="white">M</text>
<text text-anchor="middle" font-family="monospace" font-size="8" x="352" y="108">rec[0]</text>
<rect x="400" y="240" width="32" height="32" stroke="black" fill="black"/>
<text dominant-baseline="central" text-anchor="middle" font-family="monospace" font-size="30" x="416" y="256" fill="white">M</text>
<text text-anchor="middle" font-family="monospace" font-size="8" x="416" y="236">rec[1]</text>
<rect x="400" y="112" width="224" height="32" stroke="black" fill="lightgray"/>
<text dominant-baseline="central" text-anchor="middle" font-family="monospace" font-size="16" x="512" y="128">DETECTOR</text>
<text text-anchor="middle" font-family="monospace" font-size="8" x="512" y="108">D0 = rec[0]*rec[1]</text>
<path d="M132,40 L132,32 L636,32 L636,40 " stroke="black" fill="none"/>
<path d="M132,376 L132,384 L636,384 L636,376 " stroke="black" fill="none"/>
<path d="M672,64 L672,128 " stroke="black"/>
<circle cx="672" cy="64" r="12" stroke="none" fill="black"/>
<circle cx="672" cy="128" r="12" stroke="black" fill="white"/>
<path d="M660,128 L684,128 M672,116 L672,140 " stroke="black"/>
<path d="M736,128 L736,192 " stroke="black"/>
<circle cx="736" cy="192" r="12" stroke="none" fill="black"/>
<circle cx="736" cy="128" r="12" stroke="black" fill="white"/>
<path d="M724,128 L748,128 M736,116 L736,140 " stroke="black"/>
<path d="M800,192 L800,256 " stroke="black"/>
<circle cx="800" cy="192" r="12" stroke="none" fill="black"/>
<circle cx="800" cy="256" r="12" stroke="black" fill="white"/>
<path d="M788,256 L812,256 M800,244 L800,268 " stroke="black"/>
<path d="M864,256 L864,320 " stroke="black"/>
<circle cx="864" cy="320" r="12" stroke="none" fill="black"/>
<circle cx="864" cy="256" r="12" stroke="black" fill="white"/>
<path d="M852,256 L876,256 M864,244 L864,268 " stroke="black"/>
<rect x="848" y="112" width="32" height="32" stroke="black" fill="black"/>
<text dominant-baseline="central" text-anchor="middle" font-family="monospace" font-size="30" x="864" y="128" fill="white">M</text>
<text text-anchor="middle" font-family="monospace" font-size="8" x="864" y="108">rec[2]</text>
<rect x="912" y="240" width="32" height="32" stroke="black" fill="black"/>
<text dominant-baseline="central" text-anchor="middle" font-family="monospace" font-size="30" x="928" y="256" fill="white">M</text>
<text text-anchor="middle" font-family="monospace" font-size="8" x="928" y="236">rec[3]</text>
<rect x="912" y="112" width="224" height="32" stroke="black" fill="lightgray"/>
<text dominant-baseline="central" text-anchor="middle" font-family="monospace" font-size="16" x="1024" y="128">DETECTOR</text>
<text text-anchor="middle" font-family="monospace" font-size="8" x="1024" y="108">D1 = rec[2]*rec[3]</text>
<path d="M644,40 L644,32 L1148,32 L1148,40 " stroke="black" fill="none"/>
<path d="M644,376 L644,384 L1148,384 L1148,376 " stroke="black" fill="none"/>
<path d="M1184,64 L1184,128 " stroke="black"/>
<circle cx="1184" cy="64" r="12" stroke="none" fill="black"/>
<circle cx="1184" cy="128" r="12" stroke="black" fill="white"/>
<path d="M1172,128 L1196,128 M1184,116 L1184,140 " stroke="black"/>
<path d="M1248,128 L1248,192 " stroke="black"/>
<circle cx="1248" cy="192" r="12" stroke="none" fill="black"/>
<circle cx="1248" cy="128" r="12" stroke="black" fill="white"/>
<path d="M1236,128 L1260,128 M1248,116 L1248,140 " stroke="black"/>
<path d="M1312,192 L1312,256 " stroke="black"/>
<circle cx="1312" cy="192" r="12" stroke="none" fill="black"/>
<circle cx="1312" cy="256" r="12" stroke="black" fill="white"/>
<path d="M1300,256 L1324,256 M1312,244 L1312,268 " stroke="black"/>
<path d="M1376,256 L1376,320 " stroke="black"/>
<circle cx="1376" cy="320" r="12" stroke="none" fill="black"/>
<circle cx="1376" cy="256" r="12" stroke="black" fill="white"/>
<path d="M1364,256 L1388,256 M1376,244 L1376,268 " stroke="black"/>
<rect x="1360" y="112" width="32" height="32" stroke="black" fill="black"/>
<text dominant-baseline="central" text-anchor="middle" font-family="monospace" font-size="30" x="1376" y="128" fill="white">M</text>
<text text-anchor="middle" font-family="monospace" font-size="8" x="1376" y="108">rec[4]</text>
<rect x="1424" y="240" width="32" height="32" stroke="black" fill="black"/>
<text dominant-baseline="central" text-anchor="middle" font-family="monospace" font-size="30" x="1440" y="256" fill="white">M</text>
<text text-anchor="middle" font-family="monospace" font-size="8" x="1440" y="236">rec[5]</text>
<rect x="1424" y="112" width="224" height="32" stroke="black" fill="lightgray"/>
<text dominant-baseline="central" text-anchor="middle" font-family="monospace" font-size="16" x="1536" y="128">DETECTOR</text>
<text text-anchor="middle" font-family="monospace" font-size="8" x="1536" y="108">D2 = rec[4]*rec[5]</text>
<path d="M1156,40 L1156,32 L1660,32 L1660,40 " stroke="black" fill="none"/>
<path d="M1156,376 L1156,384 L1660,384 L1660,376 " stroke="black" fill="none"/>
<rect x="1680" y="48" width="32" height="32" stroke="black" fill="black"/>
<text dominant-baseline="central" text-anchor="middle" font-family="monospace" font-size="30" x="1696" y="64" fill="white">M</text>
<text text-anchor="middle" font-family="monospace" font-size="8" x="1696" y="44">rec[6]</text>
<rect x="1680" y="176" width="32" height="32" stroke="black" fill="black"/>
<text dominant-baseline="central" text-anchor="middle" font-family="monospace" font-size="30" x="1696" y="192" fill="white">M</text>
<text text-anchor="middle" font-family="monospace" font-size="8" x="1696" y="172">rec[7]</text>
<rect x="1680" y="304" width="32" height="32" stroke="black" fill="black"/>
<text dominant-baseline="central" text-anchor="middle" font-family="monospace" font-size="30" x="1696" y="320" fill="white">M</text>
<text text-anchor="middle" font-family="monospace" font-size="8" x="1696" y="300">rec[8]</text>
<rect x="1744" y="48" width="288" height="32" stroke="black" fill="lightgray"/>
<text dominant-baseline="central" text-anchor="middle" font-family="monospace" font-size="16" x="1888" y="64">OBS_INCLUDE(0)</text>
<text text-anchor="middle" font-family="monospace" font-size="8" x="1888" y="44">L0 *= rec[8]*rec[7]*rec[6]</text>
<path d="M1668,40 L1668,32 L2044,32 L2044,40 " stroke="black" fill="none"/>
<path d="M1668,376 L1668,384 L2044,384 L2044,376 " stroke="black" fill="none"/>
</svg>
