<svg viewBox="0 0 1696 736"  version="1.1" xmlns="http://www.w3.org/2000/svg">
<g id="qubit_lines">
<path id="qubit_line:0" d="M64,64 L1664,64 " stroke="black"/>
<text dominant-baseline="central" text-anchor="end" font-family="monospace" font-size="12" x="64" y="64">q0</text>
<path id="qubit_line:1" d="M64,128 L1664,128 " stroke="black"/>
<text dominant-baseline="central" text-anchor="end" font-family="monospace" font-size="12" x="64" y="128">q1</text>
<path id="qubit_line:2" d="M64,192 L1664,192 " stroke="black"/>
<text dominant-baseline="central" text-anchor="end" font-family="monospace" font-size="12" x="64" y="192">q2</text>
<path id="qubit_line:3" d="M64,256 L1664,256 " stroke="black"/>
<text dominant-baseline="central" text-anchor="end" font-family="monospace" font-size="12" x="64" y="256">q3</text>
<path id="qubit_line:4" d="M64,320 L1664,320 " stroke="black"/>
<text dominant-baseline="central" text-anchor="end" font-family="monospace" font-size="12" x="64" y="320">q4</text>
<path id="qubit_line:5" d="M64,384 L1664,384 " stroke="black"/>
<text dominant-baseline="central" text-anchor="end" font-family="monospace" font-size="12" x="64" y="384">q5</text>
<path id="qubit_line:6" d="M64,448 L1664,448 " stroke="black"/>
<text dominant-baseline="central" text-anchor="end" font-family="monospace" font-size="12" x="64" y="448">q6</text>
<path id="qubit_line:7" d="M64,512 L1664,512 " stroke="black"/>
<text dominant-baseline="central" text-anchor="end" font-family="monospace" font-size="12" x="64" y="512">q7</text>
<path id="qubit_line:8" d="M64,576 L1664,576 " stroke="black"/>
<text dominant-baseline="central" text-anchor="end" font-family="monospace" font-size="12" x="64" y="576">q8</text>
<path id="qubit_line:9" d="M64,640 L1664,640 " stroke="black"/>
<text dominant-baseline="central" text-anchor="end" font-family="monospace" font-size="12" x="64" y="640">q9</text>
</g>
<rect x="80" y="48" width="32" height="32" stroke="black" fill="black"/>
<text dominant-baseline="central" text-anchor="middle" font-family="monospace" font-size="30" x="96" y="64" fill="white">R</text>
<rect x="80" y="112" width="32" height="32" stroke="black" fill="black"/>
<text dominant-baseline="central" text-anchor="middle" font-family="monospace" font-size="30" x="96" y="128" fill="white">R</text>
<rect x="80" y="176" width="32" height="32" stroke="black" fill="black"/>
<text dominant-baseline="central" text-anchor="middle" font-family="monospace" font-size="30" x="96" y="192" fill="white">R</text>
<rect x="80" y="240" width="32" height="32" stroke="black" fill="black"/>
<text dominant-baseline="central" text-anchor="middle" font-family="monospace" font-size="30" x="96" y="256" fill="white">R</text>
<rect x="80" y="304" width="32" height="32" stroke="black" fill="black"/>
<text dominant-baseline="central" text-anchor="middle" font-family="monospace" font-size="30" x="96" y="320" fill="white">R</text>
<rect x="80" y="368" width="32" height="32" stroke="black" fill="black"/>
<text dominant-baseline="central" text-anchor="middle" font-family="monospace" font-size="30" x="96" y="384" fill="white">R</text>
<rect x="80" y="432" width="32" height="32" stroke="black" fill="black"/>
<text dominant-baseline="central" text-anchor="middle" font-family="monospace" font-size="30" x="96" y="448" fill="white">R</text>
<rect x="80" y="496" width="32" height="32" stroke="black" fill="black"/>
<text dominant-baseline="central" text-anchor="middle" font-family="monospace" font-size="30" x="96" y="512" fill="white">R</text>
<rect x="80" y="560" width="32" height="32" stroke="black" fill="black"/>
<text dominant-baseline="central" text-anchor="middle" font-family="monospace" font-size="30" x="96" y="576" fill="white">R</text>
<rect x="80" y="624" width="32" height="32" stroke="black" fill="black"/>
<text dominant-baseline="central" text-anchor="middle" font-family="monospace" font-size="30" x="96" y="640" fill="white">R</text>
<rect x="144" y="496" width="32" height="32" stroke="black" fill="white"/>
<text dominant-baseline="central" text-anchor="middle" font-family="monospace" font-size="30" x="160" y="512">H</text>
<path d="M224,64 L224,512 " stroke="black"/>
<circle cx="224" cy="64" r="12" stroke="none" fill="black"/>
<circle cx="224" cy="512" r="12" stroke="black" fill="white"/>
<path d="M212,512 L236,512 M224,500 L224,524 " stroke="black"/>
<path d="M288,192 L288,512 " stroke="black"/>
<circle cx="288" cy="192" r="12" stroke="none" fill="black"/>
<circle cx="288" cy="512" r="12" stroke="black" fill="white"/>
<path d="M276,512 L300,512 M288,500 L288,524 " stroke="black"/>
<path d="M352,320 L352,512 " stroke="black"/>
<circle cx="352" cy="320" r="12" stroke="none" fill="black"/>
<circle cx="352" cy="512" r="12" stroke="black" fill="white"/>
<path d="M340,512 L364,512 M352,500 L352,524 " stroke="black"/>
<path d="M416,448 L416,512 " stroke="black"/>
<circle cx="416" cy="448" r="12" stroke="none" fill="black"/>
<circle cx="416" cy="512" r="12" stroke="black" fill="white"/>
<path d="M404,512 L428,512 M416,500 L416,524 " stroke="black"/>
<rect x="464" y="496" width="32" height="32" stroke="black" fill="white"/>
<text dominant-baseline="central" text-anchor="middle" font-family="monospace" font-size="30" x="480" y="512">H</text>
<path d="M68,40 L68,32 L508,32 L508,40 " stroke="black" fill="none"/>
<path d="M68,696 L68,704 L508,704 L508,696 " stroke="black" fill="none"/>
<rect x="528" y="560" width="32" height="32" stroke="black" fill="white"/>
<text dominant-baseline="central" text-anchor="middle" font-family="monospace" font-size="30" x="544" y="576">H</text>
<path d="M608,128 L608,576 " stroke="black"/>
<circle cx="608" cy="128" r="12" stroke="none" fill="black"/>
<circle cx="608" cy="576" r="12" stroke="black" fill="white"/>
<path d="M596,576 L620,576 M608,564 L608,588 " stroke="black"/>
<path d="M672,192 L672,576 " stroke="black"/>
<circle cx="672" cy="192" r="12" stroke="none" fill="black"/>
<circle cx="672" cy="576" r="12" stroke="black" fill="white"/>
<path d="M660,576 L684,576 M672,564 L672,588 " stroke="black"/>
<path d="M736,384 L736,576 " stroke="black"/>
<circle cx="736" cy="384" r="12" stroke="none" fill="black"/>
<circle cx="736" cy="576" r="12" stroke="black" fill="white"/>
<path d="M724,576 L748,576 M736,564 L736,588 " stroke="black"/>
<path d="M800,448 L800,576 " stroke="black"/>
<circle cx="800" cy="448" r="12" stroke="none" fill="black"/>
<circle cx="800" cy="576" r="12" stroke="black" fill="white"/>
<path d="M788,576 L812,576 M800,564 L800,588 " stroke="black"/>
<rect x="848" y="560" width="32" height="32" stroke="black" fill="white"/>
<text dominant-baseline="central" text-anchor="middle" font-family="monospace" font-size="30" x="864" y="576">H</text>
<path d="M516,40 L516,32 L892,32 L892,40 " stroke="black" fill="none"/>
<path d="M516,696 L516,704 L892,704 L892,696 " stroke="black" fill="none"/>
<rect x="912" y="624" width="32" height="32" stroke="black" fill="white"/>
<text dominant-baseline="central" text-anchor="middle" font-family="monospace" font-size="30" x="928" y="640">H</text>
<path d="M992,256 L992,640 " stroke="black"/>
<circle cx="992" cy="256" r="12" stroke="none" fill="black"/>
<circle cx="992" cy="640" r="12" stroke="black" fill="white"/>
<path d="M980,640 L1004,640 M992,628 L992,652 " stroke="black"/>
<path d="M1056,320 L1056,640 " stroke="black"/>
<circle cx="1056" cy="320" r="12" stroke="none" fill="black"/>
<circle cx="1056" cy="640" r="12" stroke="black" fill="white"/>
<path d="M1044,640 L1068,640 M1056,628 L1056,652 " stroke="black"/>
<path d="M1120,384 L1120,640 " stroke="black"/>
<circle cx="1120" cy="384" r="12" stroke="none" fill="black"/>
<circle cx="1120" cy="640" r="12" stroke="black" fill="white"/>
<path d="M1108,640 L1132,640 M1120,628 L1120,652 " stroke="black"/>
<path d="M1184,448 L1184,640 " stroke="black"/>
<circle cx="1184" cy="448" r="12" stroke="none" fill="black"/>
<circle cx="1184" cy="640" r="12" stroke="black" fill="white"/>
<path d="M1172,640 L1196,640 M1184,628 L1184,652 " stroke="black"/>
<rect x="1232" y="624" width="32" height="32" stroke="black" fill="white"/>
<text dominant-baseline="central" text-anchor="middle" font-family="monospace" font-size="30" x="1248" y="640">H</text>
<path d="M900,40 L900,32 L1276,32 L1276,40 " stroke="black" fill="none"/>
<path d="M900,696 L900,704 L1276,704 L1276,696 " stroke="black" fill="none"/>
<rect x="1296" y="496" width="32" height="32" stroke="black" fill="black"/>
<text dominant-baseline="central" text-anchor="middle" font-family="monospace" font-size="30" x="1312" y="512" fill="white">M</text>
<text text-anchor="middle" font-family="monospace" font-size="8" x="1312" y="492">rec[0]</text>
<rect x="1296" y="560" width="32" height="32" stroke="black" fill="black"/>
<text dominant-baseline="central" text-anchor="middle" font-family="monospace" font-size="30" x="1312" y="576" fill="white">M</text>
<text text-anchor="middle" font-family="monospace" font-size="8" x="1312" y="556">rec[1]</text>
<rect x="1296" y="624" width="32" height="32" stroke="black" fill="black"/>
<text dominant-baseline="central" text-anchor="middle" font-family="monospace" font-size="30" x="1312" y="640" fill="white">M</text>
<text text-anchor="middle" font-family="monospace" font-size="8" x="1312" y="620">rec[2]</text>
<rect x="1360" y="496" width="288" height="32" stroke="black" fill="lightgray"/>
<text dominant-baseline="central" text-anchor="middle" font-family="monospace" font-size="16" x="1504" y="512">DETECTOR</text>
<text text-anchor="middle" font-family="monospace" font-size="8" x="1504" y="492">D0 = rec[0]*rec[1]*rec[2]</text>
<rect x="1360" y="48" width="32" height="32" stroke="black" fill="black"/>
<text dominant-baseline="central" text-anchor="middle" font-family="monospace" font-size="30" x="1376" y="64" fill="white">M</text>
<text text-anchor="middle" font-family="monospace" font-size="8" x="1376" y="44">rec[3]</text>
<rect x="1360" y="112" width="32" height="32" stroke="black" fill="black"/>
<text dominant-baseline="central" text-anchor="middle" font-family="monospace" font-size="30" x="1376" y="128" fill="white">M</text>
<text text-anchor="middle" font-family="monospace" font-size="8" x="1376" y="108">rec[4]</text>
<rect x="1360" y="176" width="32" height="32" stroke="black" fill="black"/>
<text dominant-baseline="central" text-anchor="middle" font-family="monospace" font-size="30" x="1376" y="192" fill="white">M</text>
<text text-anchor="middle" font-family="monospace" font-size="8" x="1376" y="172">rec[5]</text>
<rect x="1360" y="240" width="32" height="32" stroke="black" fill="black"/>
<text dominant-baseline="central" text-anchor="middle" font-family="monospace" font-size="30" x="1376" y="256" fill="white">M</text>
<text text-anchor="middle" font-family="monospace" font-size="8" x="1376" y="236">rec[6]</text>
<rect x="1360" y="304" width="32" height="32" stroke="black" fill="black"/>
<text dominant-baseline="central" text-anchor="middle" font-family="monospace" font-size="30" x="1376" y="320" fill="white">M</text>
<text text-anchor="middle" font-family="monospace" font-size="8" x="1376" y="300">rec[7]</text>
<rect x="1360" y="368" width="32" height="32" stroke="black" fill="black"/>
<text dominant-baseline="central" text-anchor="middle" font-family="monospace" font-size="30" x="1376" y="384" fill="white">M</text>
<text text-anchor="middle" font-family="monospace" font-size="8" x="1376" y="364">rec[8]</text>
<rect x="1360" y="432" width="32" height="32" stroke="black" fill="black"/>
<text dominant-baseline="central" text-anchor="middle" font-family="monospace" font-size="30" x="1376" y="448" fill="white">M</text>
<text text-anchor="middle" font-family="monospace" font-size="8" x="1376" y="428">rec[9]</text>
<path d="M1284,40 L1284,32 L1660,32 L1660,40 " stroke="black" fill="none"/>
<path d="M1284,696 L1284,704 L1660,704 L1660,696 " stroke="black" fill="none"/>
</svg>
